<?xml version="1.0" standalone="no"?>
<!DOCTYPE svg PUBLIC "-//W3C//DTD SVG 20010904//EN"
 "http://www.w3.org/TR/2001/REC-SVG-20010904/DTD/svg10.dtd">
<svg version="1.0" xmlns="http://www.w3.org/2000/svg"
 width="340.000000pt" height="285.000000pt" viewBox="0 0 340.000000 285.000000"
 preserveAspectRatio="xMidYMid meet">

<g transform="translate(0.000000,285.000000) scale(0.100000,-0.100000)"
fill="#000000" stroke="none">
<path d="M1092 2597 c-67 -30 -125 -86 -153 -151 -23 -50 -23 -59 -25 -441 0
-214 -2 -395 -3 -402 -1 -8 -65 -13 -238 -15 -236 -3 -239 -3 -288 -30 -59
-31 -94 -67 -126 -128 l-24 -45 -3 -573 -3 -572 76 0 75 0 0 548 c0 511 1 550
18 581 10 19 34 43 53 53 32 17 64 18 534 16 490 -3 501 -3 540 -25 78 -42 75
-13 75 -627 l0 -546 75 0 c65 0 75 2 75 18 1 9 0 262 0 561 l-1 544 -24 52
c-30 63 -78 108 -153 143 -55 26 -64 27 -282 32 l-225 5 0 391 c1 434 -1 424
68 461 29 16 69 18 452 18 460 0 466 -1 508 -59 l22 -31 3 -1067 3 -1068 75 0
74 0 -2 1078 -3 1077 -23 50 c-29 63 -73 109 -137 143 l-50 27 -455 2 c-455 3
-455 3 -508 -20z"/>
<path d="M1602 2203 l3 -77 155 -1 155 0 3 78 3 77 -161 0 -161 0 3 -77z"/>
<path d="M1600 1855 l0 -75 160 0 160 0 0 75 0 75 -160 0 -160 0 0 -75z"/>
<path d="M587 1244 c-4 -4 -7 -38 -7 -76 0 -58 3 -68 18 -69 9 0 26 -3 37 -5
11 -2 75 -1 143 2 l123 6 -3 72 -3 71 -151 3 c-82 1 -153 -1 -157 -4z"/>
<path d="M1094 1237 c-3 -8 -4 -41 -2 -73 3 -56 4 -59 35 -68 20 -5 81 -5 155
0 l123 9 0 70 0 70 -153 3 c-123 2 -153 0 -158 -11z"/>
<path d="M580 825 l0 -75 160 0 160 0 0 75 0 75 -160 0 -160 0 0 -75z"/>
<path d="M1087 893 c-3 -5 -4 -37 -3 -73 l1 -65 163 -3 162 -2 0 75 0 75 -159
0 c-88 0 -162 -3 -164 -7z"/>
</g>
</svg>
